<?xml version="1.0" encoding="utf-8"?>
<!-- Generator: Adobe Illustrator 21.0.2, SVG Export Plug-In . SVG Version: 6.00 Build 0)  -->
<svg version="1.1" id="Layer_1" xmlns="http://www.w3.org/2000/svg" xmlns:xlink="http://www.w3.org/1999/xlink" x="0px" y="0px"
	 viewBox="0 0 226.6 233.8" style="enable-background:new 0 0 226.6 233.8;" xml:space="preserve">
<style type="text/css">
	.st0{fill:#FFFFFF;}
	.st1{fill:none;stroke:#FFFFFF;stroke-width:0.5;stroke-miterlimit:10;}
	.st2{fill:none;stroke:#FFFFFF;stroke-width:1.5;stroke-miterlimit:10;}
</style>
<g>
	<ellipse transform="matrix(0.866 -0.5 0.5 0.866 -43.2658 72.2299)" cx="113.2" cy="116.9" rx="111.2" ry="111.2"/>
</g>
<path class="st0" d="M106.8,38.8V25.3h-4.9v-1.7c0.7,0,1.2-0.1,1.8-0.2s1.2-0.2,1.7-0.6c0.5-0.2,0.9-0.7,1.2-1.1
	c0.3-0.5,0.6-1.1,0.7-1.7h1.7v18.8H106.8z M113.9,24c0.2-0.8,0.7-1.5,1.2-2.1c0.5-0.6,1.2-1.1,2-1.4c0.7-0.3,1.7-0.5,2.7-0.5
	c0.8,0,1.6,0.1,2.3,0.3c0.7,0.2,1.3,0.6,1.9,1c0.5,0.4,0.9,1,1.2,1.7s0.5,1.4,0.5,2.3c0,0.8-0.2,1.6-0.4,2.2c-0.2,0.7-0.6,1.2-1,1.7
	c-0.4,0.5-0.9,1-1.5,1.3c-0.6,0.4-1.1,0.8-1.7,1.2c-0.6,0.3-1.2,0.7-1.7,1.1c-0.6,0.4-1.1,0.7-1.6,1.1c-0.5,0.4-0.9,0.8-1.2,1.2
	c-0.3,0.4-0.6,1-0.7,1.6h9.6v2h-12.3c0.1-1.1,0.2-2.1,0.6-2.8c0.3-0.7,0.7-1.5,1.2-2.1c0.5-0.6,1-1.1,1.7-1.6
	c0.6-0.4,1.2-0.8,1.9-1.2c0.8-0.5,1.5-0.9,2.1-1.3s1.1-0.8,1.5-1.2c0.4-0.4,0.7-0.9,0.9-1.4c0.2-0.5,0.3-1.1,0.3-1.7
	c0-0.5-0.1-1-0.3-1.4c-0.2-0.4-0.4-0.7-0.7-1.1c-0.3-0.3-0.7-0.5-1.2-0.7s-0.9-0.2-1.4-0.2c-0.7,0-1.2,0.2-1.7,0.4
	c-0.5,0.2-0.8,0.7-1.2,1.1c-0.3,0.4-0.5,0.9-0.7,1.5c-0.2,0.6-0.2,1.1-0.2,1.7h-2.2C113.6,25.7,113.7,24.8,113.9,24z M199.7,115.4
	h0.7c0.5,0,0.9-0.1,1.3-0.2c0.4-0.1,0.8-0.3,1.2-0.6c0.3-0.2,0.6-0.6,0.7-1c0.2-0.4,0.3-0.8,0.3-1.3c0-1-0.3-1.7-1-2.2
	c-0.7-0.5-1.4-0.7-2.4-0.7c-0.6,0-1.2,0.1-1.6,0.3c-0.4,0.2-0.8,0.5-1.1,0.9c-0.3,0.3-0.5,0.8-0.7,1.3c-0.2,0.5-0.2,1-0.2,1.6h-2.2
	c0-0.9,0.2-1.7,0.4-2.5c0.2-0.7,0.7-1.4,1.1-1.9c0.5-0.5,1.1-0.9,1.8-1.2c0.7-0.3,1.6-0.4,2.5-0.4c0.8,0,1.6,0.1,2.2,0.3
	c0.7,0.2,1.3,0.5,1.8,0.9c0.5,0.4,0.9,0.9,1.2,1.6c0.3,0.7,0.4,1.4,0.4,2.2s-0.2,1.6-0.7,2.2c-0.5,0.7-1.1,1.2-1.8,1.5v0.1
	c1.2,0.2,2,0.8,2.6,1.7c0.6,0.8,0.8,1.8,0.8,3c0,0.9-0.2,1.7-0.5,2.5c-0.3,0.7-0.8,1.3-1.4,1.8c-0.6,0.5-1.2,0.8-2.1,1.1
	c-0.8,0.2-1.7,0.3-2.5,0.3c-1,0-1.8-0.2-2.6-0.4c-0.7-0.2-1.4-0.7-2-1.2c-0.6-0.5-1-1.2-1.2-1.9c-0.3-0.7-0.4-1.7-0.4-2.6h2.2
	c0,1.2,0.4,2.2,1.1,3s1.7,1.2,3,1.2c0.6,0,1.1-0.1,1.6-0.2c0.5-0.2,0.9-0.4,1.3-0.7c0.4-0.3,0.7-0.7,0.9-1.2c0.2-0.5,0.3-1,0.3-1.5
	c0-0.6-0.1-1.1-0.3-1.6c-0.2-0.5-0.5-0.8-0.8-1.2c-0.3-0.3-0.7-0.6-1.2-0.7s-1-0.2-1.6-0.2c-0.5,0-0.9,0-1.3,0.1L199.7,115.4
	C199.6,115.4,199.6,115.4,199.7,115.4L199.7,115.4z M115.8,197.5c-0.6-0.5-1.2-0.7-2.2-0.7c-1,0-1.7,0.2-2.3,0.7
	c-0.6,0.4-1.1,1.1-1.3,1.7c-0.2,0.7-0.6,1.5-0.7,2.3c-0.1,0.8-0.2,1.6-0.2,2.3l0.1,0.1c0.5-0.8,1.2-1.5,2-1.9
	c0.7-0.4,1.7-0.6,2.7-0.6c0.9,0,1.7,0.2,2.4,0.5c0.7,0.3,1.3,0.7,1.8,1.3c0.5,0.6,0.8,1.2,1.2,1.9c0.2,0.7,0.4,1.6,0.4,2.4
	c0,0.7-0.1,1.4-0.3,2.2c-0.2,0.7-0.6,1.4-1.1,2c-0.5,0.6-1.2,1.1-1.9,1.5c-0.8,0.4-1.8,0.6-3,0.6c-1.4,0-2.5-0.2-3.4-0.8
	c-0.9-0.6-1.5-1.3-2-2.2c-0.5-0.9-0.7-1.8-0.9-2.9c-0.2-1.1-0.2-2.1-0.2-3.1c0-1.3,0.1-2.6,0.3-3.7c0.2-1.2,0.6-2.3,1.2-3.2
	c0.5-0.9,1.2-1.7,2.2-2.2s2-0.8,3.3-0.8c1.6,0,2.8,0.4,3.7,1.2c0.9,0.8,1.4,2,1.6,3.6h-2.2C116.8,198.6,116.4,198,115.8,197.5
	L115.8,197.5z M111.8,203.7c-0.5,0.2-0.9,0.5-1.2,0.9c-0.3,0.4-0.6,0.8-0.7,1.3s-0.2,1.1-0.2,1.7s0.1,1.2,0.2,1.7
	c0.2,0.5,0.4,1,0.7,1.3c0.3,0.3,0.7,0.7,1.2,0.9c0.5,0.2,1.1,0.3,1.7,0.3s1.2-0.1,1.7-0.3c0.5-0.2,0.8-0.5,1.2-0.9
	c0.3-0.4,0.6-0.8,0.7-1.3c0.2-0.5,0.2-1,0.2-1.6s-0.1-1.2-0.2-1.7c-0.2-0.5-0.4-1-0.7-1.3c-0.3-0.4-0.7-0.7-1.2-0.9s-1-0.3-1.7-0.3
	C112.8,203.3,112.3,203.5,111.8,203.7L111.8,203.7z M23.1,123.7c0.7,0.5,1.4,0.7,2.3,0.7c1.4,0,2.4-0.6,3.1-1.8
	c0.7-1.2,1.1-3,1.2-5.5l-0.1-0.1c-0.4,0.8-1,1.4-1.8,1.9c-0.7,0.5-1.7,0.7-2.6,0.7c-1,0-1.8-0.2-2.6-0.5s-1.3-0.7-1.9-1.3
	c-0.5-0.6-0.9-1.2-1.2-2c-0.2-0.7-0.4-1.7-0.4-2.6s0.2-1.7,0.4-2.5c0.3-0.7,0.7-1.4,1.2-1.9c0.6-0.6,1.2-1,2-1.2
	c0.7-0.3,1.6-0.4,2.5-0.4c0.9,0,1.7,0.2,2.5,0.4s1.5,0.7,2.1,1.4c0.6,0.7,1.1,1.6,1.4,2.7c0.3,1.2,0.5,2.7,0.5,4.4
	c0,3.2-0.5,5.7-1.6,7.5c-1,1.7-2.7,2.7-5,2.7c-1.6,0-2.9-0.4-3.9-1.2c-1-0.7-1.7-2-1.7-3.6h2.2C22.1,122.4,22.5,123.2,23.1,123.7z
	 M29.1,111.9c-0.2-0.5-0.4-1-0.7-1.3c-0.3-0.3-0.7-0.7-1.2-0.9c-0.5-0.2-1-0.3-1.7-0.3s-1.2,0.1-1.7,0.3c-0.5,0.2-0.8,0.6-1.2,1
	c-0.3,0.4-0.5,0.9-0.7,1.4c-0.2,0.5-0.2,1.1-0.2,1.7c0,0.5,0.1,1,0.2,1.5s0.4,0.9,0.7,1.2c0.3,0.3,0.7,0.7,1.2,0.9
	c0.4,0.2,0.9,0.3,1.5,0.3c0.6,0,1.1-0.1,1.6-0.3c0.5-0.2,0.9-0.5,1.2-0.9s0.6-0.8,0.7-1.3c0.2-0.5,0.2-1,0.2-1.6
	C29.3,113,29.2,112.4,29.1,111.9z"/>
<line class="st1" x1="19.5" y1="171" x2="26.4" y2="167"/>
<line class="st1" x1="59.1" y1="210.5" x2="63.1" y2="203.6"/>
<line class="st2" x1="113.2" y1="225" x2="113.2" y2="217"/>
<line class="st1" x1="167.3" y1="210.5" x2="163.3" y2="203.6"/>
<line class="st1" x1="206.8" y1="170.9" x2="199.9" y2="166.9"/>
<line class="st2" x1="221.3" y1="116.8" x2="213.3" y2="116.8"/>
<line class="st1" x1="206.8" y1="62.7" x2="199.9" y2="66.7"/>
<line class="st1" x1="167.2" y1="23.2" x2="163.2" y2="30.1"/>
<line class="st2" x1="113.1" y1="8.7" x2="113.1" y2="16.7"/>
<line class="st1" x1="59" y1="23.2" x2="63" y2="30.1"/>
<line class="st1" x1="19.5" y1="62.8" x2="26.4" y2="66.8"/>
<line class="st2" x1="5" y1="116.9" x2="13" y2="116.9"/>
</svg>
