<?xml version="1.0" encoding="utf-8"?>
<!-- Generator: Adobe Illustrator 16.0.0, SVG Export Plug-In . SVG Version: 6.00 Build 0)  -->
<!DOCTYPE svg PUBLIC "-//W3C//DTD SVG 1.1//EN" "http://www.w3.org/Graphics/SVG/1.1/DTD/svg11.dtd">
<svg version="1.1" id="Layer_1" xmlns="http://www.w3.org/2000/svg" xmlns:xlink="http://www.w3.org/1999/xlink" x="0px" y="0px"
	 width="162.42px" height="162.42px" viewBox="0 0 162.42 162.42" enable-background="new 0 0 162.42 162.42" xml:space="preserve">
<g>
	<path fill="#231F20" stroke="#231F20" stroke-width="0.1559" stroke-miterlimit="10" d="M81.21,0C36.359,0,0,36.359,0,81.21
		s36.359,81.21,81.21,81.21c44.852,0,81.21-36.359,81.21-81.21S126.062,0,81.21,0z M28.084,72.878
		c0.148-0.027,0.303-0.023,0.455-0.023c3.691-0.001,7.382-0.002,11.074,0.002c0.188,0,0.382,0.014,0.562,0.062
		c0.374,0.101,0.617,0.423,0.632,0.79c0.015,0.368-0.201,0.711-0.57,0.834c-0.193,0.063-0.409,0.079-0.615,0.08
		c-1.56,0.006-3.121,0.003-4.681,0.003c-0.286,0-0.571,0-0.856,0c-1.827,0-3.653,0-5.479,0c-0.152,0-0.306,0.009-0.457-0.009
		c-0.467-0.056-0.786-0.381-0.812-0.813C27.31,73.329,27.596,72.968,28.084,72.878z M43.388,89.72
		c-0.113,0.011-0.228,0.006-0.342,0.006c-4.856,0-9.712,0-14.569,0c-0.114,0-0.229,0.002-0.342-0.004
		c-0.338-0.014-0.582-0.191-0.719-0.484c-0.148-0.313-0.121-0.632,0.101-0.913c0.082-0.104,0.18-0.196,0.274-0.29
		c4.072-4.008,8.145-8.014,12.218-12.02c0.108-0.107,0.217-0.218,0.343-0.301c0.353-0.236,0.804-0.186,1.098,0.109
		c0.313,0.314,0.347,0.781,0.066,1.143c-0.116,0.149-0.26,0.278-0.396,0.411c-2.538,2.498-5.077,4.995-7.615,7.493
		c-0.882,0.868-1.765,1.736-2.646,2.605c-0.133,0.132-0.258,0.271-0.482,0.506c0.354,0.008,0.56,0.018,0.766,0.018
		c3.885,0,7.77,0,11.655,0.001c0.209,0,0.42-0.008,0.627,0.016c0.445,0.05,0.745,0.411,0.737,0.866
		C44.153,89.326,43.832,89.678,43.388,89.72z M43.355,74.868c-0.654,0.01-1.164-0.492-1.161-1.143
		c0.003-0.626,0.493-1.121,1.118-1.13c0.65-0.01,1.167,0.498,1.163,1.144C44.472,74.362,43.979,74.859,43.355,74.868z
		 M66.033,89.748c-4.645,0.031-8.453-3.854-8.429-8.491c0.022-4.296,3.465-8.403,8.477-8.393c4.82,0.01,8.461,3.916,8.427,8.498
		C74.472,86.233,70.445,89.815,66.033,89.748z M89.61,89.021c-0.047,0.467-0.432,0.811-0.883,0.803
		c-0.355-0.007-0.814-0.306-0.839-0.784c-0.01-0.189-0.013-0.38-0.013-0.57c-0.001-2.399,0-4.799,0-7.197
		c0-2.361-0.001-4.723,0-7.084c0-0.189-0.005-0.383,0.02-0.57c0.058-0.439,0.438-0.758,0.869-0.745
		c0.438,0.013,0.795,0.342,0.844,0.782c0.014,0.133,0.009,0.267,0.009,0.4c0.001,4.855,0.001,9.711,0,14.566
		C89.617,88.755,89.624,88.89,89.61,89.021z M98.005,81.817c2.041,2.022,4.082,4.045,6.123,6.066
		c0.121,0.121,0.25,0.237,0.354,0.371c0.302,0.387,0.267,0.866-0.074,1.186c-0.318,0.297-0.787,0.315-1.146,0.037
		c-0.105-0.081-0.196-0.18-0.291-0.273c-2.352-2.33-4.703-4.661-7.055-6.991c-0.094-0.095-0.193-0.184-0.279-0.285
		c-0.318-0.374-0.324-0.82-0.018-1.194c0.072-0.088,0.158-0.165,0.238-0.246c2.403-2.387,4.806-4.773,7.209-7.159
		c0.095-0.094,0.188-0.191,0.293-0.271c0.364-0.27,0.835-0.236,1.145,0.073c0.311,0.31,0.346,0.784,0.07,1.143
		c-0.115,0.149-0.258,0.279-0.393,0.413c-2.064,2.053-4.129,4.104-6.194,6.156c-0.147,0.146-0.292,0.295-0.472,0.477
		C97.713,81.521,97.857,81.671,98.005,81.817z M135.08,81.518c-0.038,2.862-1.788,6.308-5.223,7.679
		c-1.312,0.523-2.675,0.698-4.085,0.56c-0.918-0.091-1.802-0.29-2.641-0.672c-2.146-0.976-3.547-2.634-4.361-4.815
		c-0.356-0.954-0.516-1.946-0.514-2.965c0.003-1.086,0.001-2.171,0.001-3.256h-0.001c0-1.275,0-2.551,0.001-3.826
		c0.001-0.172-0.005-0.345,0.016-0.514c0.056-0.463,0.392-0.766,0.839-0.771c0.469-0.006,0.836,0.318,0.885,0.792
		c0.017,0.17,0.008,0.343,0.008,0.514c0,2.342,0.002,4.684,0,7.025c-0.002,1.37,0.363,2.637,1.093,3.788
		c1.21,1.91,2.966,2.887,5.224,2.979c1.061,0.043,2.088-0.101,3.062-0.539c1.747-0.787,2.877-2.141,3.542-3.909
		c0.306-0.812,0.418-1.656,0.416-2.521c-0.002-2.284,0-4.568,0.001-6.854c0-0.19-0.005-0.383,0.022-0.57
		c0.061-0.434,0.387-0.714,0.818-0.725c0.451-0.011,0.817,0.281,0.891,0.72c0.02,0.111,0.015,0.228,0.015,0.342
		C135.088,76.491,135.113,79.005,135.08,81.518z"/>
	<path fill="#231F20" stroke="#231F20" stroke-width="0.1559" stroke-miterlimit="10" d="M66.072,74.609
		c-3.353-0.013-6.712,2.671-6.71,6.715c0.002,3.761,3.018,6.682,6.679,6.686c3.936,0.003,6.76-3.247,6.703-6.712
		C72.775,77.592,69.663,74.623,66.072,74.609z"/>
</g>
<g>
</g>
<g>
</g>
<g>
</g>
<g>
</g>
<g>
</g>
<g>
</g>
</svg>
