<?xml version="1.0" encoding="utf-8"?>
<!-- Generator: Adobe Illustrator 16.0.0, SVG Export Plug-In . SVG Version: 6.00 Build 0)  -->
<!DOCTYPE svg PUBLIC "-//W3C//DTD SVG 1.1//EN" "http://www.w3.org/Graphics/SVG/1.1/DTD/svg11.dtd">
<svg version="1.1" id="Layer_1" xmlns="http://www.w3.org/2000/svg" xmlns:xlink="http://www.w3.org/1999/xlink" x="0px" y="0px"
	 width="175.697px" height="27.433px" viewBox="0 0 175.697 27.433" enable-background="new 0 0 175.697 27.433"
	 xml:space="preserve">
<g>
	<path fill="#010101" d="M63.042,27.331c-7.411,0-13.44-6.029-13.44-13.441c0-7.41,6.029-13.44,13.44-13.44s13.44,6.03,13.44,13.44
		C76.482,21.301,70.453,27.331,63.042,27.331 M63.042,2.517c-6.271,0-11.372,5.103-11.372,11.372
		c0,6.271,5.102,11.373,11.372,11.373c6.271,0,11.372-5.102,11.372-11.373C74.414,7.62,69.313,2.517,63.042,2.517"/>
	<path fill="#010101" d="M100.2,27.432c-0.57,0-1.033-0.462-1.033-1.033V1.5c0-0.571,0.463-1.034,1.033-1.034
		c0.572,0,1.034,0.462,1.034,1.034v24.898C101.234,26.97,100.772,27.432,100.2,27.432"/>
	<path fill="#010101" d="M124.875,27.2c-0.263,0-0.526-0.1-0.728-0.299l-12.363-12.26c-0.195-0.194-0.306-0.459-0.306-0.734
		c-0.001-0.275,0.109-0.539,0.306-0.733l12.487-12.41c0.405-0.402,1.06-0.4,1.462,0.005s0.4,1.06-0.004,1.462l-11.75,11.677
		l11.623,11.525c0.406,0.402,0.408,1.057,0.007,1.463C125.407,27.098,125.141,27.2,124.875,27.2"/>
	<path fill="#010101" d="M162.26,27.393c-5.168,0-8.322-2.457-10.059-4.518c-2.081-2.471-3.274-5.719-3.274-8.911V1.586
		c0-0.571,0.463-1.033,1.033-1.033c0.571,0,1.034,0.462,1.034,1.033v12.378c0,2.673,1.042,5.507,2.789,7.579
		c1.453,1.726,4.104,3.781,8.477,3.781c4.324,0,7.004-2.064,8.49-3.797c1.803-2.103,2.879-4.937,2.879-7.582V1.546
		c0-0.571,0.465-1.034,1.035-1.034s1.033,0.463,1.033,1.034v12.399c0,3.125-1.262,6.462-3.377,8.928
		C170.551,24.936,167.369,27.393,162.26,27.393"/>
	<path fill="#010101" d="M20.254,2.525H1.039c-0.57,0-1.033-0.462-1.033-1.034c0-0.571,0.463-1.034,1.033-1.034h19.216
		c0.571,0,1.034,0.463,1.034,1.034C21.289,2.063,20.826,2.525,20.254,2.525"/>
	<path fill="#010101" d="M25.769,27.292H1.034c-0.419,0-0.798-0.254-0.956-0.643c-0.16-0.388-0.068-0.834,0.23-1.128L21,5.167
		c0.407-0.4,1.062-0.396,1.463,0.013c0.4,0.406,0.395,1.061-0.012,1.461L3.559,25.225h22.21c0.572,0,1.035,0.463,1.035,1.033
		C26.804,26.83,26.341,27.292,25.769,27.292"/>
	<path fill="#010101" d="M27.045,1.478c0,0.674-0.546,1.22-1.22,1.22s-1.22-0.546-1.22-1.22s0.546-1.22,1.22-1.22
		S27.045,0.804,27.045,1.478"/>
	<path fill="#010101" d="M25.826,2.956c-0.814,0-1.479-0.662-1.479-1.479C24.347,0.663,25.011,0,25.826,0s1.479,0.663,1.479,1.477
		C27.304,2.293,26.64,2.956,25.826,2.956 M25.826,0.517c-0.53,0-0.961,0.431-0.961,0.96c0,0.531,0.431,0.963,0.961,0.963
		c0.529,0,0.961-0.432,0.961-0.963C26.787,0.948,26.355,0.517,25.826,0.517"/>
</g>
<g>
</g>
<g>
</g>
<g>
</g>
<g>
</g>
<g>
</g>
<g>
</g>
</svg>
